<svg width="473" height="166" viewBox="0 0 473 166" fill="none" xmlns="http://www.w3.org/2000/svg">
<g clip-path="url(#clip0)">
<path d="M56.9136 44.451H80.7317C92.8942 44.451 98.9754 49.1527 98.9754 58.5561C98.9754 63.7364 96.3853 67.6779 91.205 70.3807C94.5271 71.2253 97.1173 72.7737 98.9754 75.0261C100.89 77.2784 101.847 80.2064 101.847 83.8101C101.847 89.2719 99.989 93.4387 96.2727 96.3104C92.6127 99.1821 87.2634 100.618 80.225 100.618H56.4913V93.7765L59.2785 93.5231C60.9114 93.3542 61.7279 92.5659 61.7279 91.1582V51.8836L56.9136 51.6302V44.451ZM72.0322 75.0261V92.6785H79.9716C87.2916 92.6785 90.9516 89.6942 90.9516 83.7256C90.9516 80.9102 90.0225 78.7705 88.1643 77.3065C86.3625 75.7862 83.7724 75.0261 80.3939 75.0261H72.0322ZM72.0322 52.2214V67.509H78.2824C81.7734 67.509 84.3354 66.8051 85.9683 65.3974C87.6576 63.9334 88.5022 61.9064 88.5022 59.3162C88.5022 56.7261 87.6576 54.8961 85.9683 53.8262C84.3354 52.7564 81.9705 52.2214 78.8736 52.2214H72.0322Z" fill="#1FAB89"/>
<path d="M126.642 94.4522C132.779 94.4522 135.848 89.4971 135.848 79.587C135.848 74.5756 135.144 70.7748 133.737 68.1847C132.385 65.5945 130.077 64.2994 126.811 64.2994C123.601 64.2994 121.236 65.5382 119.716 68.0158C118.196 70.4933 117.436 73.8718 117.436 78.1511C117.436 86.0905 118.9 91.0738 121.828 93.1008C123.123 94.0018 124.727 94.4522 126.642 94.4522ZM107.216 79.3336C107.216 75.1668 107.835 71.5631 109.074 68.5225C110.313 65.4256 111.974 63.0607 114.057 61.4278C118.055 58.3871 122.475 56.8668 127.318 56.8668C130.696 56.8668 133.54 57.4299 135.848 58.5561C138.213 59.6259 140.043 60.8928 141.338 62.3568C142.69 63.7645 143.816 65.8479 144.717 68.607C145.674 71.3098 146.152 74.5193 146.152 78.2356C146.152 86.0061 144.266 91.8902 140.494 95.8881C136.721 99.8859 131.878 101.885 125.966 101.885C120.11 101.885 115.521 99.9985 112.199 96.2259C108.877 92.397 107.216 86.7662 107.216 79.3336Z" fill="#1FAB89"/>
<path d="M157.075 91.1582V67.7624C157.075 66.8614 156.906 66.2421 156.568 65.9042C156.287 65.5101 155.752 65.2848 154.964 65.2285L151.416 64.9751V58.1338H165.69V64.4684C166.704 62.2724 168.28 60.4705 170.42 59.0628C172.56 57.5988 175.009 56.8668 177.768 56.8668C180.584 56.8668 183.258 57.4862 185.792 58.725V71.3098L177.937 71.901V68.0158C177.937 66.8896 177.656 66.1858 177.092 65.9042C176.473 65.6227 175.713 65.4819 174.812 65.4819C172.56 65.4819 170.702 66.2984 169.238 67.9313C167.83 69.5079 167.126 71.535 167.126 74.0125V93.6076L174.474 93.9454V100.618H151.838V94.1988L154.626 93.9454C155.47 93.8328 156.09 93.6076 156.484 93.2698C156.878 92.8756 157.075 92.1718 157.075 91.1582Z" fill="#1FAB89"/>
<path d="M228.776 59.823V91.2427C228.776 92.1436 228.916 92.763 229.198 93.1008C229.536 93.4387 230.099 93.6358 230.887 93.6921L233.59 93.861V100.618H220.161V95.7191L219.907 95.6347C217.092 99.6888 213.235 101.716 208.336 101.716C202.593 101.716 198.341 99.8859 195.582 96.2259C192.823 92.5659 191.444 87.5545 191.444 81.1918C191.444 73.5339 193.302 67.5653 197.018 63.2859C200.734 59.0065 206.309 56.8668 213.742 56.8668C218.528 56.8668 223.539 57.8522 228.776 59.823ZM218.978 87.1885V65.313C217.402 64.581 215.234 64.215 212.475 64.215C208.702 64.215 205.971 65.7353 204.282 68.7759C202.593 71.8165 201.748 75.8425 201.748 80.8539C201.748 89.9758 204.676 94.5367 210.532 94.5367C213.01 94.5367 215.037 93.8047 216.613 92.3407C218.19 90.8204 218.978 89.103 218.978 87.1885Z" fill="#1FAB89"/>
<path d="M245.863 100.618V93.7765L248.65 93.5231C250.283 93.3542 251.099 92.5659 251.099 91.1582V51.8836L246.285 51.6302V44.451H269.428C277.705 44.451 284.152 46.647 288.769 51.039C293.443 55.431 295.78 61.9345 295.78 70.5496C295.78 75.8988 295.076 80.5724 293.668 84.5702C292.26 88.5118 290.346 91.6087 287.925 93.861C283.082 98.3656 277.057 100.618 269.85 100.618H245.863ZM261.404 52.6438V92.5096H270.019C274.861 92.5096 278.634 90.7641 281.337 87.273C284.039 83.7819 285.391 78.7142 285.391 72.0699C285.391 59.1191 279.901 52.6438 268.921 52.6438H261.404Z" fill="#1FAB89"/>
<path d="M321.375 94.4522C327.512 94.4522 330.581 89.4971 330.581 79.587C330.581 74.5756 329.877 70.7748 328.469 68.1847C327.118 65.5945 324.809 64.2994 321.544 64.2994C318.334 64.2994 315.969 65.5382 314.449 68.0158C312.929 70.4933 312.168 73.8718 312.168 78.1511C312.168 86.0905 313.632 91.0738 316.56 93.1008C317.855 94.0018 319.46 94.4522 321.375 94.4522ZM301.949 79.3336C301.949 75.1668 302.568 71.5631 303.807 68.5225C305.045 65.4256 306.707 63.0607 308.79 61.4278C312.788 58.3871 317.208 56.8668 322.05 56.8668C325.429 56.8668 328.272 57.4299 330.581 58.5561C332.946 59.6259 334.776 60.8928 336.071 62.3568C337.422 63.7645 338.549 65.8479 339.449 68.607C340.407 71.3098 340.885 74.5193 340.885 78.2356C340.885 86.0061 338.999 91.8902 335.226 95.8881C331.454 99.8859 326.611 101.885 320.699 101.885C314.843 101.885 310.254 99.9985 306.932 96.2259C303.61 92.397 301.949 86.7662 301.949 79.3336Z" fill="#1FAB89"/>
<path d="M384.495 59.823V91.2427C384.495 92.1436 384.635 92.763 384.917 93.1008C385.255 93.4387 385.818 93.6358 386.606 93.6921L389.309 93.861V100.618H375.879V95.7191L375.626 95.6347C372.811 99.6888 368.954 101.716 364.055 101.716C358.311 101.716 354.06 99.8859 351.301 96.2259C348.542 92.5659 347.163 87.5545 347.163 81.1918C347.163 73.5339 349.021 67.5653 352.737 63.2859C356.453 59.0065 362.028 56.8668 369.46 56.8668C374.247 56.8668 379.258 57.8522 384.495 59.823ZM374.697 87.1885V65.313C373.12 64.581 370.953 64.215 368.193 64.215C364.421 64.215 361.69 65.7353 360.001 68.7759C358.311 71.8165 357.467 75.8425 357.467 80.8539C357.467 89.9758 360.395 94.5367 366.251 94.5367C368.728 94.5367 370.755 93.8047 372.332 92.3407C373.909 90.8204 374.697 89.103 374.697 87.1885Z" fill="#1FAB89"/>
<path d="M399.73 91.1582V67.7624C399.73 66.8614 399.561 66.2421 399.223 65.9042C398.942 65.5101 398.407 65.2848 397.618 65.2285L394.071 64.9751V58.1338H408.345V64.4684C409.359 62.2724 410.935 60.4705 413.075 59.0628C415.215 57.5988 417.664 56.8668 420.423 56.8668C423.238 56.8668 425.913 57.4862 428.447 58.725V71.3098L420.592 71.901V68.0158C420.592 66.8896 420.31 66.1858 419.747 65.9042C419.128 65.6227 418.368 65.4819 417.467 65.4819C415.215 65.4819 413.356 66.2984 411.892 67.9313C410.485 69.5079 409.781 71.535 409.781 74.0125V93.6076L417.129 93.9454V100.618H394.493V94.1988L397.281 93.9454C398.125 93.8328 398.745 93.6076 399.139 93.2698C399.533 92.8756 399.73 92.1718 399.73 91.1582Z" fill="#1FAB89"/>
<path d="M444.935 20.1524C442.756 21.9581 437.108 20.844 434.556 20.0612C435.814 24.1772 434.07 30.373 430.468 31.4735C426.867 32.5741 423.636 30.2238 420.959 26.1289C418.721 22.7035 417.576 13.6695 416.811 4.95197C416.585 2.38302 418.853 0.298364 421.396 0.721188C438.921 3.63389 442.894 5.56259 446.342 9.29648C450.097 13.3618 447.658 17.8951 444.935 20.1524Z" fill="#FF8080"/>
<path fill-rule="evenodd" clip-rule="evenodd" d="M422.526 8.67383C423.625 7.43397 425.521 7.31982 426.761 8.41887C446.273 25.715 460.149 45.9433 465.235 69.8855C470.323 93.838 466.533 121.126 451.417 152.384C450.695 153.875 448.901 154.5 447.41 153.778C445.918 153.057 445.294 151.263 446.015 149.771C460.702 119.404 464.114 93.4822 459.366 71.1323C454.616 48.7722 441.617 29.6059 422.781 12.9088C421.541 11.8098 421.427 9.9137 422.526 8.67383Z" fill="#FF8080"/>
<path d="M28.4702 142.075C30.6712 140.297 36.3049 141.482 38.8467 142.297C37.641 138.165 39.4633 131.992 43.0783 130.937C46.6933 129.882 49.8943 132.273 52.5188 136.402C54.7143 139.855 55.7452 148.903 56.3999 157.629C56.5928 160.201 54.2995 162.257 51.7611 161.802C34.275 158.668 30.3269 156.689 26.9254 152.912C23.2221 148.8 25.719 144.298 28.4702 142.075Z" fill="#FF8080"/>
<path fill-rule="evenodd" clip-rule="evenodd" d="M50.7322 153.836C49.6176 155.061 47.7202 155.152 46.4943 154.037C27.202 136.496 13.5828 116.094 8.79925 92.0896C4.01369 68.0748 8.14751 40.8365 23.6577 9.77255C24.3978 8.2902 26.1995 7.68851 27.6819 8.42865C29.1642 9.16879 29.7659 10.9705 29.0258 12.4528C13.9572 42.6323 10.2182 68.5089 14.6836 90.917C19.151 113.335 31.9065 132.664 50.5307 149.598C51.7566 150.712 51.8468 152.61 50.7322 153.836Z" fill="#FF8080"/>
<path d="M154.932 141.536V143.211H145.15V129.732H154.662V131.407H147.075V135.547H153.834V137.184H147.075V141.536H154.932Z" fill="#E5905E"/>
<path d="M164.867 143.365C163.852 143.365 162.87 143.211 161.92 142.903C160.983 142.582 160.245 142.171 159.706 141.671L160.418 140.169C160.932 140.631 161.587 141.01 162.383 141.305C163.191 141.587 164.019 141.729 164.867 141.729C165.984 141.729 166.818 141.542 167.37 141.17C167.922 140.785 168.198 140.278 168.198 139.649C168.198 139.187 168.044 138.814 167.736 138.532C167.441 138.237 167.068 138.012 166.619 137.858C166.183 137.704 165.56 137.531 164.751 137.338C163.737 137.094 162.915 136.85 162.286 136.606C161.67 136.363 161.137 135.99 160.688 135.49C160.252 134.976 160.033 134.289 160.033 133.429C160.033 132.71 160.219 132.062 160.592 131.484C160.977 130.907 161.555 130.444 162.325 130.098C163.095 129.751 164.051 129.578 165.194 129.578C165.99 129.578 166.773 129.681 167.543 129.886C168.314 130.091 168.975 130.387 169.527 130.772L168.891 132.312C168.326 131.953 167.723 131.683 167.081 131.504C166.439 131.311 165.81 131.215 165.194 131.215C164.103 131.215 163.281 131.414 162.729 131.812C162.19 132.21 161.92 132.723 161.92 133.352C161.92 133.814 162.075 134.193 162.383 134.488C162.691 134.771 163.069 134.995 163.519 135.162C163.981 135.316 164.603 135.483 165.387 135.663C166.401 135.907 167.216 136.151 167.832 136.395C168.448 136.639 168.975 137.011 169.411 137.511C169.86 138.012 170.085 138.686 170.085 139.533C170.085 140.239 169.893 140.888 169.507 141.478C169.122 142.056 168.538 142.518 167.755 142.865C166.972 143.198 166.009 143.365 164.867 143.365Z" fill="#E5905E"/>
<path d="M181.044 129.732C182.79 129.732 184.163 130.149 185.165 130.984C186.166 131.818 186.667 132.967 186.667 134.43C186.667 135.894 186.166 137.043 185.165 137.877C184.163 138.712 182.79 139.129 181.044 139.129H177.712V143.211H175.787V129.732H181.044ZM180.986 137.454C182.205 137.454 183.136 137.197 183.778 136.683C184.42 136.157 184.741 135.406 184.741 134.43C184.741 133.455 184.42 132.71 183.778 132.197C183.136 131.67 182.205 131.407 180.986 131.407H177.712V137.454H180.986Z" fill="#E5905E"/>
<path d="M200.295 139.841H193.132L191.649 143.211H189.666L195.77 129.732H197.676L203.8 143.211H201.778L200.295 139.841ZM199.621 138.301L196.714 131.696L193.806 138.301H199.621Z" fill="#E5905E"/>
<path d="M208.699 129.732H210.625V141.536H217.923V143.211H208.699V129.732Z" fill="#E5905E"/>
<path d="M234.613 129.732V143.211H232.688V137.203H224.947V143.211H223.021V129.732H224.947V135.528H232.688V129.732H234.613Z" fill="#E5905E"/>
<path d="M251.318 141.536V143.211H241.536V129.732H251.049V131.407H243.462V135.547H250.221V137.184H243.462V141.536H251.318Z" fill="#E5905E"/>
<path d="M271.47 143.365C270.109 143.365 268.883 143.07 267.792 142.48C266.7 141.876 265.84 141.048 265.211 139.996C264.595 138.943 264.287 137.768 264.287 136.472C264.287 135.175 264.595 134 265.211 132.948C265.84 131.895 266.7 131.073 267.792 130.483C268.883 129.88 270.109 129.578 271.47 129.578C272.818 129.578 274.037 129.88 275.128 130.483C276.219 131.073 277.073 131.895 277.689 132.948C278.306 133.988 278.614 135.162 278.614 136.472C278.614 137.781 278.306 138.962 277.689 140.015C277.073 141.055 276.219 141.876 275.128 142.48C274.037 143.07 272.818 143.365 271.47 143.365ZM271.47 141.652C272.458 141.652 273.344 141.427 274.127 140.978C274.923 140.528 275.546 139.912 275.995 139.129C276.457 138.333 276.688 137.447 276.688 136.472C276.688 135.496 276.457 134.617 275.995 133.834C275.546 133.038 274.923 132.415 274.127 131.966C273.344 131.516 272.458 131.292 271.47 131.292C270.481 131.292 269.583 131.516 268.774 131.966C267.978 132.415 267.349 133.038 266.887 133.834C266.437 134.617 266.213 135.496 266.213 136.472C266.213 137.447 266.437 138.333 266.887 139.129C267.349 139.912 267.978 140.528 268.774 140.978C269.583 141.427 270.481 141.652 271.47 141.652Z" fill="#E5905E"/>
<path d="M301.575 136.221C302.358 136.44 302.974 136.837 303.423 137.415C303.873 137.98 304.097 138.699 304.097 139.572C304.097 140.74 303.654 141.639 302.769 142.268C301.896 142.897 300.618 143.211 298.937 143.211H292.505V129.732H298.552C300.092 129.732 301.28 130.04 302.114 130.656C302.961 131.272 303.385 132.126 303.385 133.217C303.385 133.923 303.218 134.533 302.884 135.047C302.563 135.56 302.127 135.952 301.575 136.221ZM294.431 131.292V135.605H298.378C299.367 135.605 300.124 135.425 300.65 135.066C301.19 134.694 301.459 134.154 301.459 133.448C301.459 132.742 301.19 132.21 300.65 131.85C300.124 131.478 299.367 131.292 298.378 131.292H294.431ZM298.86 141.652C299.951 141.652 300.772 141.472 301.324 141.112C301.876 140.753 302.152 140.188 302.152 139.418C302.152 137.916 301.055 137.165 298.86 137.165H294.431V141.652H298.86Z" fill="#E5905E"/>
<path d="M319.75 141.536V143.211H309.967V129.732H319.48V131.407H311.893V135.547H318.652V137.184H311.893V141.536H319.75Z" fill="#E5905E"/>
<path d="M338.253 143.211L338.234 133.391L333.362 141.575H332.476L327.605 133.448V143.211H325.756V129.732H327.335L332.958 139.206L338.504 129.732H340.083L340.102 143.211H338.253Z" fill="#E5905E"/>
</g>
<defs>
<clipPath id="clip0">
<rect width="473" height="166" fill="white"/>
</clipPath>
</defs>
</svg>
