<svg width="275" height="205" viewBox="0 0 275 205" fill="none" xmlns="http://www.w3.org/2000/svg">
<g clip-path="url(#clip0)">
<path d="M50.9616 30.1752H74.7798C86.9422 30.1752 93.0235 34.8769 93.0235 44.2803C93.0235 49.4606 90.4333 53.4021 85.253 56.1049C88.5752 56.9495 91.1653 58.4979 93.0235 60.7502C94.9379 63.0026 95.8952 65.9306 95.8952 69.5343C95.8952 74.9961 94.037 79.1629 90.3207 82.0346C86.6607 84.9062 81.3115 86.3421 74.273 86.3421H50.5393V79.5007L53.3265 79.2473C54.9595 79.0784 55.7759 78.2901 55.7759 76.8824V37.6078L50.9616 37.3544V30.1752ZM66.0802 60.7502V78.4027H74.0196C81.3396 78.4027 84.9996 75.4184 84.9996 69.4498C84.9996 66.6344 84.0705 64.4947 82.2124 63.0307C80.4105 61.5104 77.8204 60.7502 74.4419 60.7502H66.0802ZM66.0802 37.9456V53.2332H72.3304C75.8215 53.2332 78.3835 52.5293 80.0164 51.1216C81.7056 49.6576 82.5502 47.6306 82.5502 45.0404C82.5502 42.4502 81.7056 40.6202 80.0164 39.5504C78.3835 38.4806 76.0185 37.9456 72.9216 37.9456H66.0802Z" fill="white"/>
<path d="M120.69 80.1764C126.827 80.1764 129.896 75.2213 129.896 65.3112C129.896 60.2998 129.192 56.499 127.785 53.9089C126.433 51.3187 124.125 50.0236 120.859 50.0236C117.649 50.0236 115.284 51.2624 113.764 53.7399C112.244 56.2175 111.484 59.5959 111.484 63.8753C111.484 71.8147 112.948 76.7979 115.876 78.825C117.171 79.7259 118.775 80.1764 120.69 80.1764ZM101.264 65.0578C101.264 60.891 101.883 57.2873 103.122 54.2467C104.361 51.1498 106.022 48.7849 108.105 47.1519C112.103 44.1113 116.523 42.591 121.366 42.591C124.744 42.591 127.588 43.1541 129.896 44.2803C132.261 45.3501 134.091 46.617 135.386 48.081C136.738 49.4887 137.864 51.5721 138.765 54.3312C139.722 57.0339 140.201 60.2435 140.201 63.9598C140.201 71.7303 138.314 77.6144 134.542 81.6123C130.769 85.6101 125.927 87.609 120.014 87.609C114.158 87.609 109.569 85.7227 106.247 81.9501C102.925 78.1212 101.264 72.4904 101.264 65.0578Z" fill="white"/>
<path d="M151.123 76.8824V53.4866C151.123 52.5856 150.954 51.9662 150.616 51.6284C150.335 51.2342 149.8 51.009 149.012 50.9527L145.464 50.6993V43.8579H159.738V50.1926C160.752 47.9966 162.328 46.1947 164.468 44.787C166.608 43.323 169.057 42.591 171.816 42.591C174.632 42.591 177.306 43.2104 179.84 44.4492V57.0339L171.985 57.6252V53.7399C171.985 52.6138 171.704 51.9099 171.14 51.6284C170.521 51.3469 169.761 51.2061 168.86 51.2061C166.608 51.2061 164.75 52.0226 163.286 53.6555C161.878 55.2321 161.174 57.2592 161.174 59.7367V79.3318L168.522 79.6696V86.3421H145.886V79.923L148.674 79.6696C149.518 79.557 150.138 79.3318 150.532 78.9939C150.926 78.5998 151.123 77.8959 151.123 76.8824Z" fill="white"/>
<path d="M222.824 45.5472V76.9669C222.824 77.8678 222.964 78.4872 223.246 78.825C223.584 79.1629 224.147 79.3599 224.935 79.4162L227.638 79.5852V86.3421H214.209V81.4433L213.955 81.3589C211.14 85.413 207.283 87.4401 202.384 87.4401C196.641 87.4401 192.389 85.6101 189.63 81.9501C186.871 78.2901 185.492 73.2787 185.492 66.9159C185.492 59.2581 187.35 53.2895 191.066 49.0101C194.782 44.7307 200.357 42.591 207.79 42.591C212.576 42.591 217.587 43.5764 222.824 45.5472ZM213.026 72.9127V51.0372C211.45 50.3052 209.282 49.9392 206.523 49.9392C202.75 49.9392 200.019 51.4595 198.33 54.5001C196.641 57.5407 195.796 61.5667 195.796 66.5781C195.796 75.6999 198.724 80.2609 204.58 80.2609C207.058 80.2609 209.085 79.5289 210.661 78.0649C212.238 76.5446 213.026 74.8272 213.026 72.9127Z" fill="white"/>
<path d="M47.5393 150.957V144.116L50.3265 143.863C51.9595 143.694 52.7759 142.905 52.7759 141.498V102.223L47.9616 101.97V94.7905H71.1041C79.3813 94.7905 85.8285 96.9865 90.4458 101.379C95.1193 105.771 97.4561 112.274 97.4561 120.889C97.4561 126.238 96.7522 130.912 95.3445 134.91C93.9368 138.851 92.0224 141.948 89.6012 144.201C84.7587 148.705 78.7338 150.957 71.5264 150.957H47.5393ZM63.0802 102.983V142.849H71.6953C76.5378 142.849 80.3104 141.104 83.0132 137.613C85.7159 134.121 87.0673 129.054 87.0673 122.409C87.0673 109.459 81.5773 102.983 70.5973 102.983H63.0802Z" fill="white"/>
<path d="M123.051 144.792C129.189 144.792 132.258 139.837 132.258 129.927C132.258 124.915 131.554 121.114 130.146 118.524C128.795 115.934 126.486 114.639 123.22 114.639C120.011 114.639 117.646 115.878 116.125 118.355C114.605 120.833 113.845 124.211 113.845 128.491C113.845 136.43 115.309 141.413 118.237 143.44C119.532 144.341 121.137 144.792 123.051 144.792ZM103.625 129.673C103.625 125.506 104.244 121.903 105.483 118.862C106.722 115.765 108.383 113.4 110.466 111.767C114.464 108.727 118.884 107.206 123.727 107.206C127.105 107.206 129.949 107.769 132.258 108.896C134.622 109.965 136.452 111.232 137.748 112.696C139.099 114.104 140.225 116.187 141.126 118.947C142.083 121.649 142.562 124.859 142.562 128.575C142.562 136.346 140.676 142.23 136.903 146.228C133.13 150.225 128.288 152.224 122.376 152.224C116.52 152.224 111.93 150.338 108.608 146.565C105.286 142.737 103.625 137.106 103.625 129.673Z" fill="white"/>
<path d="M186.171 110.163V141.582C186.171 142.483 186.312 143.103 186.593 143.44C186.931 143.778 187.494 143.975 188.283 144.032L190.985 144.201V150.957H177.556V146.059L177.303 145.974C174.487 150.028 170.63 152.055 165.731 152.055C159.988 152.055 155.737 150.225 152.978 146.565C150.219 142.905 148.839 137.894 148.839 131.531C148.839 123.873 150.697 117.905 154.414 113.625C158.13 109.346 163.704 107.206 171.137 107.206C175.923 107.206 180.934 108.192 186.171 110.163ZM176.374 137.528V115.653C174.797 114.921 172.629 114.555 169.87 114.555C166.097 114.555 163.366 116.075 161.677 119.115C159.988 122.156 159.143 126.182 159.143 131.193C159.143 140.315 162.071 144.876 167.927 144.876C170.405 144.876 172.432 144.144 174.009 142.68C175.585 141.16 176.374 139.443 176.374 137.528Z" fill="white"/>
<path d="M201.406 141.498V118.102C201.406 117.201 201.238 116.582 200.9 116.244C200.618 115.85 200.083 115.624 199.295 115.568L195.748 115.315V108.473H210.022V114.808C211.035 112.612 212.612 110.81 214.751 109.402C216.891 107.938 219.34 107.206 222.1 107.206C224.915 107.206 227.59 107.826 230.123 109.065V121.649L222.268 122.241V118.355C222.268 117.229 221.987 116.525 221.424 116.244C220.804 115.962 220.044 115.821 219.143 115.821C216.891 115.821 215.033 116.638 213.569 118.271C212.161 119.847 211.457 121.875 211.457 124.352V143.947L218.806 144.285V150.957H196.17V144.538L198.957 144.285C199.802 144.172 200.421 143.947 200.815 143.609C201.209 143.215 201.406 142.511 201.406 141.498Z" fill="white"/>
<path d="M249.853 21.1468C247.674 22.9525 242.026 21.8384 239.474 21.0556C240.732 25.1716 238.988 31.3674 235.386 32.4679C231.785 33.5685 228.554 31.2181 225.878 27.1233C223.639 23.6979 222.494 14.6639 221.729 5.94636C221.504 3.37742 223.771 1.29276 226.315 1.71558C243.839 4.62828 247.812 6.55698 251.261 10.2909C255.016 14.3562 252.576 18.8895 249.853 21.1468Z" fill="#FF8080"/>
<path fill-rule="evenodd" clip-rule="evenodd" d="M227.444 9.66823C228.543 8.42836 230.439 8.31421 231.679 9.41326C251.191 26.7094 265.067 46.9377 270.153 70.8799C275.241 94.8324 271.452 122.121 256.335 153.378C255.614 154.87 253.82 155.494 252.328 154.773C250.836 154.051 250.212 152.257 250.933 150.766C265.62 120.398 269.032 94.4766 264.284 72.1267C259.534 49.7666 246.535 30.6003 227.699 13.9032C226.459 12.8041 226.345 10.9081 227.444 9.66823Z" fill="#FF8080"/>
<path d="M22.5184 183.838C24.7194 182.059 30.3531 183.245 32.8948 184.06C31.6891 179.928 33.5114 173.755 37.1264 172.7C40.7415 171.645 43.9424 174.036 46.567 178.164C48.7624 181.618 49.7933 190.665 50.448 199.392C50.641 201.963 48.3476 204.019 45.8093 203.564C28.3232 200.431 24.375 198.452 20.9736 194.675C17.2702 190.562 19.7671 186.06 22.5184 183.838Z" fill="#FF8080"/>
<path fill-rule="evenodd" clip-rule="evenodd" d="M44.7803 195.598C43.6657 196.824 41.7684 196.914 40.5425 195.8C21.2501 178.259 7.63093 157.857 2.84741 133.852C-1.93816 109.837 2.19567 82.5991 17.7059 51.5352C18.446 50.0529 20.2477 49.4512 21.73 50.1913C23.2124 50.9315 23.8141 52.7332 23.0739 54.2155C8.00534 84.395 4.26632 110.272 8.73171 132.68C13.1991 155.098 25.9547 174.427 44.5788 191.36C45.8047 192.475 45.8949 194.372 44.7803 195.598Z" fill="#FF8080"/>
<path d="M83.8054 186.309V187.985H74.0232V174.505H83.5358V176.18H75.9488V180.321H82.7078V181.957H75.9488V186.309H83.8054Z" fill="white"/>
<path d="M93.7401 188.139C92.7259 188.139 91.7438 187.985 90.7939 187.676C89.8567 187.355 89.1186 186.945 88.5794 186.444L89.2919 184.942C89.8054 185.404 90.4601 185.783 91.256 186.078C92.0648 186.361 92.8928 186.502 93.7401 186.502C94.8569 186.502 95.6914 186.316 96.2434 185.943C96.7954 185.558 97.0714 185.051 97.0714 184.422C97.0714 183.96 96.9174 183.588 96.6093 183.305C96.314 183.01 95.9417 182.785 95.4924 182.631C95.0559 182.477 94.4333 182.304 93.6245 182.111C92.6104 181.867 91.7888 181.624 91.1597 181.38C90.5435 181.136 90.0108 180.763 89.5615 180.263C89.125 179.749 88.9068 179.062 88.9068 178.202C88.9068 177.483 89.0929 176.835 89.4652 176.257C89.8503 175.68 90.428 175.218 91.1982 174.871C91.9685 174.524 92.9249 174.351 94.0674 174.351C94.8634 174.351 95.6464 174.454 96.4167 174.659C97.1869 174.865 97.8481 175.16 98.4001 175.545L97.7646 177.085C97.1998 176.726 96.5964 176.456 95.9545 176.277C95.3127 176.084 94.6836 175.988 94.0674 175.988C92.9762 175.988 92.1546 176.187 91.6026 176.585C91.0635 176.983 90.7939 177.496 90.7939 178.125C90.7939 178.587 90.9479 178.966 91.256 179.261C91.5641 179.544 91.9428 179.769 92.3921 179.935C92.8543 180.089 93.4769 180.256 94.26 180.436C95.2742 180.68 96.0893 180.924 96.7055 181.168C97.3217 181.412 97.8481 181.784 98.2845 182.285C98.7339 182.785 98.9585 183.459 98.9585 184.307C98.9585 185.013 98.766 185.661 98.3808 186.251C97.9957 186.829 97.4116 187.291 96.6285 187.638C95.8454 187.972 94.8826 188.139 93.7401 188.139Z" fill="white"/>
<path d="M109.917 174.505C111.663 174.505 113.037 174.922 114.038 175.757C115.039 176.591 115.54 177.74 115.54 179.204C115.54 180.667 115.039 181.816 114.038 182.651C113.037 183.485 111.663 183.902 109.917 183.902H106.586V187.985H104.66V174.505H109.917ZM109.859 182.227C111.079 182.227 112.01 181.97 112.651 181.457C113.293 180.93 113.614 180.179 113.614 179.204C113.614 178.228 113.293 177.483 112.651 176.97C112.01 176.444 111.079 176.18 109.859 176.18H106.586V182.227H109.859Z" fill="white"/>
<path d="M129.169 184.615H122.005L120.523 187.985H118.539L124.643 174.505H126.55L132.673 187.985H130.651L129.169 184.615ZM128.495 183.074L125.587 176.469L122.679 183.074H128.495Z" fill="white"/>
<path d="M137.573 174.505H139.498V186.309H146.796V187.985H137.573V174.505Z" fill="white"/>
<path d="M163.487 174.505V187.985H161.561V181.977H153.82V187.985H151.894V174.505H153.82V180.301H161.561V174.505H163.487Z" fill="white"/>
<path d="M180.192 186.309V187.985H170.41V174.505H179.922V176.18H172.335V180.321H179.094V181.957H172.335V186.309H180.192Z" fill="white"/>
<path d="M200.343 188.139C198.982 188.139 197.756 187.843 196.665 187.253C195.574 186.649 194.714 185.821 194.085 184.769C193.469 183.716 193.16 182.541 193.16 181.245C193.16 179.948 193.469 178.774 194.085 177.721C194.714 176.668 195.574 175.847 196.665 175.256C197.756 174.653 198.982 174.351 200.343 174.351C201.691 174.351 202.911 174.653 204.002 175.256C205.093 175.847 205.947 176.668 206.563 177.721C207.179 178.761 207.487 179.935 207.487 181.245C207.487 182.554 207.179 183.735 206.563 184.788C205.947 185.828 205.093 186.649 204.002 187.253C202.911 187.843 201.691 188.139 200.343 188.139ZM200.343 186.425C201.332 186.425 202.217 186.2 203 185.751C203.796 185.301 204.419 184.685 204.868 183.902C205.33 183.106 205.561 182.22 205.561 181.245C205.561 180.269 205.33 179.39 204.868 178.607C204.419 177.811 203.796 177.188 203 176.739C202.217 176.29 201.332 176.065 200.343 176.065C199.355 176.065 198.456 176.29 197.647 176.739C196.851 177.188 196.222 177.811 195.76 178.607C195.311 179.39 195.086 180.269 195.086 181.245C195.086 182.22 195.311 183.106 195.76 183.902C196.222 184.685 196.851 185.301 197.647 185.751C198.456 186.2 199.355 186.425 200.343 186.425Z" fill="white"/>
<path d="M230.448 180.994C231.231 181.213 231.847 181.611 232.297 182.188C232.746 182.753 232.971 183.472 232.971 184.345C232.971 185.513 232.528 186.412 231.642 187.041C230.769 187.67 229.492 187.985 227.81 187.985H221.379V174.505H227.425C228.965 174.505 230.153 174.813 230.987 175.429C231.835 176.046 232.258 176.899 232.258 177.991C232.258 178.697 232.091 179.306 231.758 179.82C231.437 180.333 231 180.725 230.448 180.994ZM223.304 176.065V180.378H227.252C228.24 180.378 228.998 180.199 229.524 179.839C230.063 179.467 230.333 178.928 230.333 178.222C230.333 177.516 230.063 176.983 229.524 176.623C228.998 176.251 228.24 176.065 227.252 176.065H223.304ZM227.733 186.425C228.824 186.425 229.646 186.245 230.198 185.886C230.75 185.526 231.026 184.961 231.026 184.191C231.026 182.689 229.928 181.938 227.733 181.938H223.304V186.425H227.733Z" fill="white"/>
<path d="M248.623 186.309V187.985H238.841V174.505H248.353V176.18H240.766V180.321H247.525V181.957H240.766V186.309H248.623Z" fill="white"/>
<path d="M267.127 187.985L267.107 178.164L262.236 186.348H261.35L256.478 178.222V187.985H254.629V174.505H256.208L261.831 183.979L267.377 174.505H268.956L268.975 187.985H267.127Z" fill="white"/>
</g>
<defs>
<clipPath id="clip0">
<rect width="275" height="205" fill="white"/>
</clipPath>
</defs>
</svg>
